<svg xmlns="http://www.w3.org/2000/svg" version="1.1" xmlns:xlink="http://www.w3.org/1999/xlink" width="512" height="512" x="0" y="0" viewBox="0 0 512 512" style="enable-background:new 0 0 512 512" xml:space="preserve" class=""><circle r="256" cx="256" cy="256" fill="#00958c" shape="circle"></circle><g transform="matrix(0.7,0,0,0.7,76.80000000000001,76.80000000000001)"><path d="M256 0C115.39 0 0 115.39 0 256s115.39 256 256 256 256-115.39 256-256S396.61 0 256 0zm116.673 118.114c5.858-5.858 15.355-5.858 21.213 0s5.858 15.355 0 21.213-15.355 5.858-21.213 0-5.858-15.355 0-21.213zM241 76c0-8.291 6.709-15 15-15s15 6.709 15 15v30c0 8.291-6.709 15-15 15s-15-6.709-15-15zM76 271c-8.291 0-15-6.709-15-15s6.709-15 15-15h30c8.291 0 15 6.709 15 15s-6.709 15-15 15zm63.327 122.886c-5.858 5.858-15.355 5.858-21.213 0s-5.858-15.355 0-21.213c5.858-5.859 15.355-5.859 21.213 0 5.858 5.858 5.858 15.355 0 21.213zm0-254.559c-5.858 5.858-15.355 5.858-21.213 0s-5.858-15.355 0-21.213 15.355-5.858 21.213 0 5.858 15.355 0 21.213zM271 436c0 8.291-6.709 15-15 15s-15-6.709-15-15v-30c0-8.291 6.709-15 15-15s15 6.709 15 15zm85.605-79.395c-5.859 5.859-15.352 5.859-21.211 0l-90-90A14.99 14.99 0 0 1 241 256v-90c0-8.291 6.709-15 15-15s15 6.709 15 15v83.789l85.605 85.605c5.86 5.86 5.86 15.352 0 21.211zm37.281 37.281c-5.858 5.858-15.355 5.858-21.213 0s-5.858-15.355 0-21.213c5.858-5.859 15.355-5.859 21.213 0 5.857 5.858 5.857 15.355 0 21.213zM451 256c0 8.291-6.709 15-15 15h-30c-8.291 0-15-6.709-15-15s6.709-15 15-15h30c8.291 0 15 6.709 15 15z" fill="#ffffff" opacity="1" data-original="#000000" class=""></path></g></svg>