<svg xmlns="http://www.w3.org/2000/svg" version="1.1" xmlns:xlink="http://www.w3.org/1999/xlink" width="512" height="512" x="0" y="0" viewBox="0 0 64 64" style="enable-background:new 0 0 512 512" xml:space="preserve" class=""><circle r="32" cx="32" cy="32" fill="#00958c" shape="circle"></circle><g transform="matrix(0.7,0,0,0.7,13.100000000000001,9.600000000000001)"><path d="M40 15h-1V4h2V0H13v4h2v11h-1a6 6 0 0 0-6 6v37a6 6 0 0 0 6 6h26a6 6 0 0 0 6-6V21a6 6 0 0 0-6-6zM19 4h16v11h-4v-4h-2V9h-4v2h-2v4h-4zm23 54a2 2 0 0 1-2 2H14a2 2 0 0 1-2-2v-3h30zm0-30H12v-7a2 2 0 0 1 2-2h26a2 2 0 0 1 2 2z" fill="#ffffff" opacity="1" data-original="#000000" class=""></path></g></svg>