<svg xmlns="http://www.w3.org/2000/svg" version="1.1" xmlns:xlink="http://www.w3.org/1999/xlink" width="512" height="512" x="0" y="0" viewBox="0 0 24 24" style="enable-background:new 0 0 512 512" xml:space="preserve" fill-rule="evenodd" class=""><circle r="12" cx="12" cy="12" fill="#00958c" shape="circle"></circle><g transform="matrix(0.74,0,0,0.74,3.1200000000000028,3.1199998760223426)"><circle cx="8" cy="17" r="2.75" fill="#ffffff" opacity="1" data-original="#000000" class=""></circle><path d="M4.325 17.75A3.751 3.751 0 0 1 8 13.25a3.751 3.751 0 0 1 3.675 4.5h9.575V19a.75.75 0 0 0 1.5 0v-2a.75.75 0 0 0-.75-.75h-1.268a1.72 1.72 0 0 0 .018-.25V9.7c0-.623-.212-1.228-.601-1.715l-1.952-2.446a2.748 2.748 0 0 0-2.329-1.289H4A2.75 2.75 0 0 0 1.25 7v9c0 .966.783 1.75 1.75 1.75zM17 16.25V11a1 1 0 0 0-1-1h-2a1 1 0 0 0-1 1v5.25zM5.5 7.5a.997.997 0 0 0-1 1V10a.997.997 0 0 0 1 1h4a.997.997 0 0 0 1-1V8.5a.997.997 0 0 0-1-1h-4z" fill="#ffffff" opacity="1" data-original="#000000" class=""></path></g></svg>