<svg xmlns="http://www.w3.org/2000/svg" version="1.1" xmlns:xlink="http://www.w3.org/1999/xlink" width="512" height="512" x="0" y="0" viewBox="0 0 512 512" style="enable-background:new 0 0 512 512" xml:space="preserve" class=""><circle r="256" cx="256" cy="256" fill="#00958c" shape="circle"></circle><g transform="matrix(0.74,0,0,0.74,91.5597401428223,66.55999801635747)"><path d="M30.118 71.529h301.176c16.634 0 30.118 13.484 30.118 30.118v135.529H0V101.647c0-16.633 13.484-30.118 30.118-30.118zm414.117 286.118h-82.824c0 16.634-13.484 30.118-30.118 30.118h-60.235c0-37.425-30.339-67.765-67.765-67.765-13.931 0-26.879 4.203-37.647 11.411C154.879 324.203 141.931 320 128 320c-37.426 0-67.765 30.339-67.765 67.765H30.117c-16.634 0-30.118-13.484-30.118-30.118v-90.353h361.412v60.235H496.94c8.317 0 15.059 6.742 15.059 15.059s-6.742 15.059-15.059 15.059h-22.588v22.588c0 8.317-6.742 15.059-15.059 15.059s-15.059-6.742-15.059-15.059v-22.588zm-278.588-6.769c9.566-9.762 22.899-15.819 37.647-15.819 29.108 0 52.706 23.597 52.706 52.706s-23.597 52.706-52.706 52.706c-14.748 0-28.081-6.057-37.647-15.819-9.566 9.762-22.899 15.819-37.647 15.819-29.108 0-52.706-23.597-52.706-52.706S98.891 335.059 128 335.059c14.748 0 28.081 6.057 37.647 15.819zM128 410.353c12.475 0 22.588-10.113 22.588-22.588S140.475 365.176 128 365.176s-22.588 10.113-22.588 22.588 10.113 22.589 22.588 22.589zm75.294 0c12.475 0 22.588-10.113 22.588-22.588s-10.113-22.588-22.588-22.588-22.588 10.113-22.588 22.588 10.113 22.588 22.588 22.588z" fill="#ffffff" opacity="1" data-original="#000000" class=""></path></g></svg>