<svg xmlns="http://www.w3.org/2000/svg" version="1.1" xmlns:xlink="http://www.w3.org/1999/xlink" width="512" height="512" x="0" y="0" viewBox="0 0 452 452.923" style="enable-background:new 0 0 512 512" xml:space="preserve" class=""><g><path d="M177.691 41.047c-58.16 0-105.472 46.031-105.472 102.613S119.53 246.273 177.69 246.273s105.477-46.03 105.477-102.613c0-56.582-47.316-102.613-105.477-102.613zm69.688 89.433-33.266 24.727 12.77 40.195a10.13 10.13 0 0 1-4.043 11.45 10.789 10.789 0 0 1-12.438-.266l-32.71-24.313-32.708 24.313a10.789 10.789 0 0 1-12.437.266 10.124 10.124 0 0 1-4.043-11.45l12.766-40.195-33.262-24.727a10.086 10.086 0 0 1-3.59-11.437 10.53 10.53 0 0 1 9.988-6.977h40.563l12.644-39.8a10.64 10.64 0 0 1 20.157 0l12.644 39.8h40.563a10.54 10.54 0 0 1 9.992 6.977 10.098 10.098 0 0 1-3.59 11.437zM281.695 272.773c-.18.137-.379.243-.558.38-4.153 3.148-8.453 6.03-12.832 8.769a159.227 159.227 0 0 1-3.48 2.125c-4.614 2.73-9.302 5.308-14.126 7.582-.328.152-.664.273-.992.426-4.578 2.117-9.266 3.976-14.008 5.675-1.265.454-2.527.895-3.8 1.32-5.063 1.677-10.184 3.184-15.399 4.38-.082.015-.16.047-.242.066l38.562 149.426 29.457-57.317c2.7-5.109 8.973-7.144 14.153-4.59l56.492 27.481zm0 0" fill="#002577" opacity="1" data-original="#000000" class=""></path><path d="M276.805 249.969c.379-.426.789-.828 1.226-1.196a141.307 141.307 0 0 0 47.324-105.113C325.355 64.445 259.117 0 177.691 0 96.27 0 30.027 64.445 30.027 143.66a141.32 141.32 0 0 0 47.325 105.113c.402.36.773.747 1.113 1.16a149.592 149.592 0 0 0 8.222 6.75 148.193 148.193 0 0 0 67.051 28.712l3.75.527a145.937 145.937 0 0 0 40.61-.031l3.492-.489a147.772 147.772 0 0 0 63.11-25.906c4.198-2.965 8.237-6.144 12.105-9.527zm-99.114 16.828c-69.789 0-126.566-55.242-126.566-123.137 0-67.898 56.777-123.137 126.566-123.137 69.79 0 126.57 55.239 126.57 123.137 0 67.895-56.78 123.137-126.57 123.137zM123.352 299.012a168.173 168.173 0 0 1-3.657-1.266c-4.914-1.758-9.765-3.668-14.492-5.871-.183-.082-.371-.148-.555-.234-4.851-2.282-9.554-4.868-14.175-7.606a167.96 167.96 0 0 1-3.403-2.07c-4.574-2.852-9.062-5.848-13.363-9.14a.36.36 0 0 0-.031-.02L.46 418.496l56.492-27.48a10.685 10.685 0 0 1 4.707-1.082c3.961-.028 7.61 2.16 9.445 5.671l29.457 57.317 38.567-149.426c-.078-.016-.152-.047-.227-.062-5.273-1.204-10.441-2.727-15.55-4.422zm0 0" fill="#002577" opacity="1" data-original="#000000" class=""></path></g></svg>