<svg xmlns="http://www.w3.org/2000/svg" version="1.1" xmlns:xlink="http://www.w3.org/1999/xlink" width="512" height="512" x="0" y="0" viewBox="0 0 512 512" style="enable-background:new 0 0 512 512" xml:space="preserve" class=""><g><path d="M235.34 312.319c-11.373-11.372-11.371-29.897 0-41.291l20.648-20.648 20.668 20.646c11.374 11.398 11.375 29.922.003 41.294-5.491 5.492-12.828 8.517-20.659 8.517s-15.169-3.024-20.661-8.517zm93.1-199.029H183.561c-25.899 0-46.97 21.058-46.97 46.941v81.808h52.028c14.068-22.433 38.999-37.389 67.368-37.389s53.318 14.956 67.391 37.389h52.032v-81.808c0-25.884-21.07-46.941-46.97-46.941zM190.563 286.395v-4.465c1.183-35.089 30.066-63.275 65.424-63.275s64.268 28.186 65.451 63.275v4.465c-1.184 35.089-30.079 63.275-65.451 63.275s-64.241-28.186-65.424-63.275zm34.876 35.826c8.136 8.137 18.99 12.618 30.562 12.618s22.426-4.481 30.562-12.617c16.827-16.827 16.829-44.232.005-61.091l-.008-.007-25.625-25.597a7.002 7.002 0 0 0-9.899.002l-25.602 25.602c-16.825 16.858-16.823 44.264.005 61.09zm-48.855-34.843c-.011-.164-.025-.327-.025-.494v-.489c-.021-.744-.057-1.484-.057-2.233s.036-1.489.057-2.233v-.489c0-.167.014-.33.025-.494a79.014 79.014 0 0 1 5.069-24.903h-45.062v56.238h45.062a79.014 79.014 0 0 1-5.069-24.903zm79.403 76.296c-28.369 0-53.3-14.956-67.368-37.389h-52.028v81.808c0 25.884 21.07 46.941 46.97 46.941H328.44c25.899 0 46.97-21.058 46.97-46.941v-81.808h-52.032c-14.073 22.433-39.012 37.389-67.391 37.389zM216.244 68.418h-1.077a7.002 7.002 0 0 1 0-14.004h81.666a7.002 7.002 0 0 1 0 14.004h-1.076v30.868h25.681V46.931c0-13.191-10.732-23.924-23.924-23.924h-83.056c-13.176 0-23.896 10.732-23.896 23.924v52.355h25.682zm119.172 212.528c.011.164.025.327.025.494v.489c.021.744.057 1.484.057 2.233s-.036 1.489-.057 2.233v.489c0 .167-.014.33-.025.494a79.015 79.015 0 0 1-5.07 24.903h45.063v-56.238h-45.063a78.96 78.96 0 0 1 5.07 24.903zM190.562 488.993h130.875v-19.955H190.562z" fill="#00958c" opacity="1" data-original="#000000" class=""></path></g></svg>