<svg xmlns="http://www.w3.org/2000/svg" version="1.1" xmlns:xlink="http://www.w3.org/1999/xlink" width="512" height="512" x="0" y="0" viewBox="0 0 452.923 452" style="enable-background:new 0 0 512 512" xml:space="preserve" class=""><circle r="226.4615" cx="226.4615" cy="226" fill="#00958c" shape="circle"></circle><g transform="matrix(0.7999999999999999,0,0,0.7999999999999999,45.292202758789074,110.69219999909406)"><path d="M232.27 228.371v-6.82c.003-6.418-5.196-11.63-11.614-11.633h-46.453v-23.273h46.453c6.418-.008 11.617-5.22 11.614-11.637v-6.82l30.03 30.093zM148.129 35.371h-23.227V58.06l23.227 25.859zM90.063 128.46c0-6.425-5.204-11.636-11.618-11.636-6.41 0-11.613 5.211-11.613 11.637s5.203 11.637 11.613 11.637c6.414 0 11.618-5.211 11.618-11.637zm0 0" fill="#ffffff" opacity="1" data-original="#000000"></path><path d="m151.117 122.027-.008-.004-46.453-51.714-.004-.008L78.45 41.125 0 128.461h8.766c6.421.008 11.62 5.219 11.613 11.637v104.726h23.226v-58.18c-.003-6.421 5.196-11.632 11.614-11.636h46.457c6.418.004 11.617 5.215 11.613 11.637v58.18h23.227V140.097c-.008-6.418 5.191-11.63 11.613-11.637h8.766zm-72.672 41.344c-19.285.04-34.949-15.574-34.976-34.863-.024-19.29 15.597-34.942 34.886-34.957 19.29-.012 34.934 15.62 34.934 34.91-.004 19.254-15.59 34.871-34.844 34.91zM371.629 128.46V47.009h-81.293v81.453zm-69.68-58.179c-.008-6.422 5.192-11.633 11.613-11.636h34.84c6.422.003 11.621 5.214 11.614 11.636v34.906c.007 6.422-5.192 11.633-11.614 11.637h-34.84c-6.421-.004-11.62-5.215-11.613-11.636zm0 0" fill="#ffffff" opacity="1" data-original="#000000"></path><path d="M325.176 81.918h11.613v11.633h-11.613zM386.973 23.734 374.39.461h-86.817l-12.582 23.273zM443.855 105.188h-49v23.273h54.805zM325.176 209.918h11.613v11.633h-11.613zm0 0" fill="#ffffff" opacity="1" data-original="#000000"></path><path d="M383.242 151.734h-92.906v104.727h81.293v-58.18c-.004-6.422 5.195-11.633 11.613-11.636h46.453c6.422.003 11.621 5.214 11.614 11.636v58.18h11.613V151.734zm-23.226 81.453c.007 6.422-5.192 11.633-11.614 11.637h-34.84c-6.421-.004-11.62-5.215-11.613-11.637v-34.906c-.008-6.422 5.192-11.633 11.613-11.636h34.84c6.422.003 11.621 5.214 11.614 11.636zm0 0" fill="#ffffff" opacity="1" data-original="#000000"></path></g></svg>