<svg xmlns="http://www.w3.org/2000/svg" version="1.1" xmlns:xlink="http://www.w3.org/1999/xlink" width="512" height="512" x="0" y="0" viewBox="0 0 452 452.923" style="enable-background:new 0 0 512 512" xml:space="preserve" class=""><g transform="matrix(0.7500000000000006,0,0,0.7500000000000006,66.73037552088488,56.61524963378898)"><path d="M.46 413.54c0 21.714 17.903 39.382 39.907 39.382 22 0 39.903-17.668 39.903-39.383v-39.387H.46zM339.645 187.078a121.132 121.132 0 0 0-27.266 3.145c-36.336 10.054-66.418 32.464-82.055 67.043-1.312 2.925-2.535 5.898-3.61 8.937-.253.719-.566 1.414-.808 2.137a40.037 40.037 0 0 1 4.625-1.262c.719-.172 1.399-.453 2.137-.586a40.267 40.267 0 0 1 7.219-.644 40.036 40.036 0 0 1 30.511 14.03c8.243-8.573 20.575-14.03 34.332-14.03 1.895.023 3.786.168 5.665.43.234.03.44.163.671.206 11.461 1.45 21.618 6.465 28.579 14.016 8.238-8.934 20.828-14.652 34.917-14.652 13.754 0 26.086 5.457 34.329 14.03a40.251 40.251 0 0 1 44.492-11.538c-15.738-47.145-60.774-81.262-113.738-81.262zM369.574 443.078c-26.48 0-39.906-16.562-39.906-49.23V305.23c.07-5.457 4.52-9.847 9.977-9.847 5.46 0 9.906 4.39 9.976 9.847v88.618c0 19.156 3.18 29.535 19.953 29.535 18.992 0 19.95-16.403 19.95-19.692.074-5.457 4.519-9.843 9.976-9.843 5.46 0 9.906 4.386 9.977 9.843 0 15.832-10.63 39.387-39.903 39.387zm0 0" fill="#002577" opacity="1" data-original="#000000" class=""></path><path d="M299.637 285.957a30.083 30.083 0 0 0-4.332 1.063c-6.758 2.195-13.297 7.382-15.035 14.468a15.504 15.504 0 0 0-.48 3.742 9.975 9.975 0 0 1-9.978 9.848c-5.457 0-9.902-4.387-9.976-9.848-.14-10.918-9.031-19.69-19.95-19.69-10.921 0-19.812 8.772-19.952 19.69a9.975 9.975 0 0 1-9.977 9.848 9.975 9.975 0 0 1-9.977-9.848c0-55.605 38.22-110.02 91.45-129.203 2.746-1.004 5.488-2.007 8.312-2.84V0h-199.52v413.54a58.73 58.73 0 0 1-.992 10.429 58.8 58.8 0 0 1-13.886 28.422c-.149.168-.254.367-.403.53h174.895c22.004 0 39.906-17.667 39.906-39.382V285.937h-.027c-.028.004-.05.016-.078.02zM130.148 29.539h139.665a9.847 9.847 0 1 1 0 19.691H130.148a9.84 9.84 0 0 1-8.632-4.886 9.835 9.835 0 0 1 0-9.918 9.84 9.84 0 0 1 8.632-4.887zm0 49.23h139.665a9.847 9.847 0 1 1 0 19.692H130.148a9.84 9.84 0 0 1-8.632-4.887 9.835 9.835 0 0 1 0-9.918 9.84 9.84 0 0 1 8.632-4.886zm0 49.231h139.665a9.847 9.847 0 1 1 0 19.691H130.148a9.845 9.845 0 0 1-8.632-14.804 9.84 9.84 0 0 1 8.632-4.887zm0 49.23h99.762a9.84 9.84 0 0 1 8.633 4.887 9.845 9.845 0 0 1-8.633 14.805h-99.762a9.845 9.845 0 0 1-8.632-14.805 9.84 9.84 0 0 1 8.632-4.887zm0 49.23h59.856a9.847 9.847 0 1 1 0 19.692h-59.856a9.845 9.845 0 0 1-8.632-14.804 9.84 9.84 0 0 1 8.632-4.887zm0 49.231h49.88a9.847 9.847 0 1 1 0 19.692h-49.88a9.837 9.837 0 0 1-8.632-4.883 9.842 9.842 0 0 1 0-9.922 9.84 9.84 0 0 1 8.632-4.887zm139.665 118.157H130.148a9.84 9.84 0 0 1-8.632-4.887 9.842 9.842 0 0 1 0-9.922 9.84 9.84 0 0 1 8.632-4.887h139.665a9.847 9.847 0 0 1 8.636 14.809 9.847 9.847 0 0 1-8.637 4.887zm0-49.23H130.148a9.849 9.849 0 1 1 0-19.696h139.665a9.847 9.847 0 0 1 8.636 14.808 9.855 9.855 0 0 1-8.637 4.887zm0 0" fill="#002577" opacity="1" data-original="#000000" class=""></path></g></svg>