<svg xmlns="http://www.w3.org/2000/svg" version="1.1" xmlns:xlink="http://www.w3.org/1999/xlink" width="512" height="512" x="0" y="0" viewBox="0 0 452.923 452" style="enable-background:new 0 0 512 512" xml:space="preserve" class=""><circle r="226.4615" cx="226.4615" cy="226" fill="#00958c" shape="circle"></circle><g transform="matrix(0.83,0,0,0.83,48.49836975097659,80.20747047871353)"><path d="M264.41 266.836a11.117 11.117 0 0 1-7.137-2.926 9.914 9.914 0 0 1-2.656-9.484l14.274-56.48c.164-.544.379-1.071.632-1.575.07-.152.055-.316.13-.469.03-.062.093-.097.124-.16a9.86 9.86 0 0 1 1.77-2.433l29.984-29.664V.46H119.848v215.305l36.535-14.856a10.04 10.04 0 0 1 13.762 10.442c-.016.386-.055.77-.114 1.152l-16.601 67.531H301.53v-22.074l-34.672 8.574c-.8.2-1.625.3-2.449.3zM150.13 30.418H271.25a9.986 9.986 0 1 1 0 19.969H150.129a9.986 9.986 0 1 1 0-19.969zm0 39.937H271.25a9.986 9.986 0 1 1 0 19.97H150.129a9.986 9.986 0 1 1 0-19.97zm0 39.938H271.25a9.986 9.986 0 0 1 8.738 15.012 9.986 9.986 0 0 1-8.738 4.96H150.129a9.986 9.986 0 0 1-8.738-15.011 9.986 9.986 0 0 1 8.738-4.961zm0 59.91a9.986 9.986 0 1 1 0-19.969H271.25a9.986 9.986 0 1 1 0 19.97zm90.84 79.879H180.41a9.986 9.986 0 1 1 0-19.969h60.559a9.986 9.986 0 1 1 0 19.969zm-50.465-39.937a9.986 9.986 0 0 1-8.738-15.012 9.986 9.986 0 0 1 8.738-4.961h60.558a9.986 9.986 0 0 1 8.739 15.012 9.986 9.986 0 0 1-8.739 4.96zM29.008 354.922l20.187-18.027-20.187-11.926zm0 0" fill="#ffffff" opacity="1" data-original="#000000" class=""></path><path d="m104.129 354.246 34.566-109.433-84.992 76.433zM0 286.102l36.336 23.777 78.262-70.383zM305.242 202.336l80.5-79.633-7.14-7.062-59.844 59.199-23.035 22.789zM396.445 90.93a5.076 5.076 0 0 0-7.129 0 4.943 4.943 0 0 0-.016 7.05l35.704 35.32a5.087 5.087 0 0 0 7.129-.007 4.96 4.96 0 0 0 0-7.059zM285.422 214.867l-7.14 28.258 28.566-7.066-7.141-14.13zM449.973 87.398l-14.274-14.117c-3.96-3.894-10.312-3.894-14.277 0l-7.137 7.059 28.55 28.242 7.138-7.059a9.924 9.924 0 0 0 2.949-7.062 9.938 9.938 0 0 0-2.95-7.063zM319.512 216.457l4.761 9.418 82.88-81.992-7.137-7.063zm0 0" fill="#ffffff" opacity="1" data-original="#000000" class=""></path></g></svg>