<svg xmlns="http://www.w3.org/2000/svg" version="1.1" xmlns:xlink="http://www.w3.org/1999/xlink" width="512" height="512" x="0" y="0" viewBox="0 0 452.923 452" style="enable-background:new 0 0 512 512" xml:space="preserve" class=""><g transform="matrix(1,0,0,1,0,50)"><path d="m154.191 263.02-15.359 9.02 16.547 11.112zM109.191 181.332 68.61 109.836l-13.507 7.93-4.149 2.437L91.535 191.7l13.508-7.93zM22.578 28.754l-4.918-8.672L0 30.449l4.918 8.672 13.512-7.93zM41.77 41.824 6.46 62.563l25.298 44.57 35.308-20.738zM128.387 194.406l-35.309 20.735 25.297 44.57.266-.156.004-.004 12.835-7.54 22.204-13.034zM274.418 101.422 175.43 280.098l1.328 22.59a10.774 10.774 0 0 1-4.945 9.812 9.84 9.84 0 0 1-10.555-.191l-2.68-1.801-13.691 24.722H323.39l129.53-233.808zm-25.98 223.18h-30.282c-5.722-.153-10.238-4.907-10.093-10.625v-12.024l-14.59 10.238a9.799 9.799 0 0 1-7.641 1.563 9.78 9.78 0 0 1-6.355-4.512c-3.094-4.883-1.868-11.328 2.796-14.738l30.282-21.254a9.65 9.65 0 0 1 10.36-.531 10.74 10.74 0 0 1 5.335 9.375v21.254h20.188a10.641 10.641 0 0 1 10.09 10.629 10.637 10.637 0 0 1-10.09 10.625zm50.468-10.625c-16.699 0-30.281-14.305-30.281-31.883 0-17.582 13.582-31.883 30.281-31.883 16.696 0 30.281 14.3 30.281 31.883 0 17.578-13.585 31.883-30.28 31.883zm50.469-85.024H238.344c-5.66-.289-10.094-4.96-10.094-10.625s4.434-10.336 10.094-10.629h111.031c5.656.293 10.09 4.965 10.09 10.63s-4.434 10.335-10.09 10.624zm30.281-42.508H268.625a10.642 10.642 0 0 1-10.094-10.629 10.642 10.642 0 0 1 10.094-10.629h111.031a10.641 10.641 0 0 1 10.09 10.63 10.641 10.641 0 0 1-10.09 10.628zm20.188-42.511H288.813a10.642 10.642 0 0 1-10.094-10.63 10.635 10.635 0 0 1 10.094-10.624h111.03c5.657.289 10.09 4.96 10.09 10.625a10.641 10.641 0 0 1-10.09 10.629zm0 0" fill="#002577" opacity="1" data-original="#000000" class=""></path><path d="M126.555 92.883a4.845 4.845 0 0 1-2.707-.836c-17.203-11.547-41.285-61.582-49.22-78.82L8.689 52.898a4.908 4.908 0 0 1-6.883-1.976 5.468 5.468 0 0 1 1.875-7.25L74.34 1.16a4.809 4.809 0 0 1 4.023-.45 5.12 5.12 0 0 1 3.047 2.813c8.375 18.813 33.29 69.782 47.867 79.567a5.489 5.489 0 0 1 1.54 7.336 4.985 4.985 0 0 1-4.262 2.457zm0 0" fill="#002577" opacity="1" data-original="#000000" class=""></path></g></svg>