<svg xmlns="http://www.w3.org/2000/svg" version="1.1" xmlns:xlink="http://www.w3.org/1999/xlink" width="512" height="512" x="0" y="0" viewBox="0 0 452 452.923" style="enable-background:new 0 0 512 512" xml:space="preserve" class=""><g transform="matrix(1,0,0,1,80,0)"><path d="M148.152 0C66.715 0 .461 67.043.461 149.445c0 117.059 116.887 266.203 147.691 303.477 30.809-37.29 147.696-186.496 147.696-303.477C295.848 67.043 229.59 0 148.152 0zm0 278.969c-70.582 0-128-58.102-128-129.524 0-71.418 57.418-129.52 128-129.52s128 58.102 128 129.52c0 71.422-57.418 129.524-128 129.524zm0 0" fill="#002577" opacity="1" data-original="#000000"></path><path d="M172.77 124.54H84.152v79.702h88.618zm-19.692 54.796a4.962 4.962 0 0 1-1.43 3.512 4.942 4.942 0 0 1-3.496 1.468H108.77a4.941 4.941 0 0 1-4.922-4.98v-29.89a4.932 4.932 0 0 1 1.425-3.508 4.953 4.953 0 0 1 3.497-1.473h39.382a4.952 4.952 0 0 1 4.926 4.98zM182.617 124.54h29.535v79.702h-29.535zM79.23 114.574h86.153l22.156-29.886H92.121l-14.77 29.886zM197.383 88.008l-19.692 26.566h39.387zm0 0" fill="#002577" opacity="1" data-original="#000000"></path></g></svg>