<svg xmlns="http://www.w3.org/2000/svg" version="1.1" xmlns:xlink="http://www.w3.org/1999/xlink" width="512" height="512" x="0" y="0" viewBox="0 0 452.923 452" style="enable-background:new 0 0 512 512" xml:space="preserve" class=""><g><path d="M181.965 273.125h7.39c-1.308-2.188-2.652-4.434-4.015-6.719zM311.578 232.73H287.16c-6.969 12.356-14.648 25.489-23.59 40.395h27.7zM226.46 293.77c22.321-37.31 49.7-83.157 51.274-86.012 37.36-68.848 45.2-99.985 45.2-113.985 0-51.453-43.278-93.312-96.473-93.312s-96.473 41.86-96.473 93.312c0 14 7.84 45.137 45.188 113.961 1.582 2.875 28.969 48.727 51.285 86.036zm0-250.489c27.852.156 50.317 22.832 50.212 50.68-.102 27.851-22.735 50.36-50.586 50.309-27.852-.051-50.399-22.645-50.399-50.497.106-27.949 22.82-50.539 50.774-50.492zm0 0" fill="#d2dddf" opacity="1" data-original="#000000" class=""></path><path d="M151.5 333.715h109.305l20.308-40.395H251.31c-9.868 15.797-16.329 25.696-16.329 25.696-.043.066-.128.086-.171.148a10.046 10.046 0 0 1-8.348 4.453c-3.352 0-6.48-1.668-8.348-4.453-.043-.062-.129-.082-.172-.148 0 0-6.464-9.91-16.324-25.696H171.81zM173.102 245.586a83.746 83.746 0 0 1-1.446-2.55l-1.129-1.981a465.357 465.357 0 0 1-4.718-8.325H90.266l-22.567 40.395h91.555zM283.516 333.715h112.992l22.566-40.395h-115.25zM253.05 394.309h109.606l22.567-40.395H273.359zM334.29 232.73l-20.31 40.395h115.583c.253 0 .464.125.714.14l22.645-40.535zM22.645 353.77 0 394.309h98.324l20.309-40.395H23.359c-.254 0-.464-.125-.714-.144zM121.031 394.309H230.34l20.308-40.395H141.344zM149.098 293.32H56.414l-22.566 40.395h94.941zm0 0" fill="#d2dddf" opacity="1" data-original="#000000" class=""></path></g></svg>