<svg xmlns="http://www.w3.org/2000/svg" version="1.1" xmlns:xlink="http://www.w3.org/1999/xlink" width="512" height="512" x="0" y="0" viewBox="0 0 452.923 452" style="enable-background:new 0 0 512 512" xml:space="preserve" class=""><g><path d="m156.938 355.098-28.09-120.95L452.922.461 179.395 262.758c-1.23 1.316-22.458 92.34-22.458 92.34zM452.921.46 114.934 219.656l-92.43-52.996zM175.266 363.105l17.304-75.898 32.817 18.805zm191.191.707-165.61-94.898 65.9-70.18L452.921.461zM82.71 292.926c3.833-3.961 3.833-10.25 0-14.215a9.645 9.645 0 0 0-13.878 0L2.875 346.277c-3.832 3.965-3.832 10.254 0 14.215a9.645 9.645 0 0 0 13.879 0zM83.27 329.273 17.309 396.84c-3.832 3.96-3.832 10.25 0 14.215a9.645 9.645 0 0 0 13.878 0l65.961-67.567c3.832-3.96 3.832-10.254 0-14.215a9.638 9.638 0 0 0-6.937-2.945 9.653 9.653 0 0 0-6.941 2.945zm0 0" fill="#d2dddf" opacity="1" data-original="#000000" class=""></path></g></svg>