<svg xmlns="http://www.w3.org/2000/svg" version="1.1" xmlns:xlink="http://www.w3.org/1999/xlink" width="512" height="512" x="0" y="0" viewBox="0 0 452.923 452.923" style="enable-background:new 0 0 512 512" xml:space="preserve" class=""><g><path d="M24.707 143.695A66.707 66.707 0 0 1 0 91.957c0-36.96 30.445-67.035 67.867-67.035a67.346 67.346 0 0 1 46.004 17.758 190.99 190.99 0 0 0-89.164 101.015zM428.219 143.695A191.012 191.012 0 0 0 339.05 42.68a67.349 67.349 0 0 1 46.008-17.758c37.418 0 67.863 30.074 67.863 67.035a66.704 66.704 0 0 1-24.703 51.738zM200.36 0h52.202v13.754H200.36zM127.273 241.5H96.48c5.075 62.855 55.907 113.066 119.54 118.082v-30.418c.07-5.719 4.726-10.316 10.44-10.316 5.72 0 10.372 4.597 10.442 10.316v30.418c63.633-5.016 114.465-55.227 119.54-118.082h-30.794a10.306 10.306 0 0 1-9.035-5.117 10.319 10.319 0 0 1 0-10.39 10.306 10.306 0 0 1 9.035-5.118h30.793c-5.074-62.855-55.906-113.066-119.539-118.082v30.418c-.07 5.719-4.722 10.316-10.441 10.316-5.715 0-10.371-4.597-10.441-10.316v-30.418c-63.633 5.016-114.465 55.227-119.54 118.082h30.793a10.317 10.317 0 0 1 9.04 5.117 10.319 10.319 0 0 1 0 10.39 10.317 10.317 0 0 1-9.04 5.118zm88.747-72.191c.07-5.72 4.726-10.317 10.44-10.317 5.72 0 10.372 4.598 10.442 10.317v51.566h40.891a10.317 10.317 0 0 1 9.039 5.117 10.319 10.319 0 0 1 0 10.39 10.317 10.317 0 0 1-9.039 5.118h-51.332c-5.73.035-10.406-4.582-10.441-10.313zM356.973 421.984H95.949c-18.937-.054-35.535 12.649-40.441 30.938h341.906c-4.902-18.29-21.504-30.992-40.441-30.938zm0 0" fill="#d2dddf" opacity="1" data-original="#000000"></path><path d="M236.902 61.54V24.081H216.02v37.457c-90.122 5.379-161.833 79.297-161.833 169.649 0 93.832 77.282 170.167 172.274 170.167s172.273-76.335 172.273-170.168c0-90.351-71.707-164.269-161.832-169.648zm-10.441 319.19c-83.477 0-151.39-67.085-151.39-149.542S142.983 81.645 226.46 81.645c83.476 0 151.394 67.085 151.394 149.543S309.937 380.73 226.461 380.73zm0 0" fill="#d2dddf" opacity="1" data-original="#000000"></path></g></svg>