<svg xmlns="http://www.w3.org/2000/svg" version="1.1" xmlns:xlink="http://www.w3.org/1999/xlink" width="512" height="512" x="0" y="0" viewBox="0 0 452 452.923" style="enable-background:new 0 0 512 512" xml:space="preserve" class=""><g transform="matrix(1,0,0,1,80,0)"><path d="M281.457 0H14.852C6.918 0 .46 5.68.46 12.66v427.606c0 6.98 6.457 12.656 14.39 12.656h266.606c7.934 0 14.39-5.676 14.39-12.656V12.66c0-6.98-6.456-12.66-14.39-12.66zm-54.535 413.54H69.382c-5.437 0-9.843-4.411-9.843-9.849s4.406-9.843 9.844-9.843h157.539c5.437 0 9.848 4.406 9.848 9.843s-4.41 9.848-9.848 9.848zm39.387-59.08c0 5.438-4.41 9.849-9.848 9.849H39.848c-5.438 0-9.848-4.41-9.848-9.848V39.383c0-5.438 4.41-9.844 9.848-9.844H256.46c5.437 0 9.848 4.406 9.848 9.844zm0 0" fill="#d2dddf" opacity="1" data-original="#000000" class=""></path></g></svg>