<svg xmlns="http://www.w3.org/2000/svg" version="1.1" xmlns:xlink="http://www.w3.org/1999/xlink" width="512" height="512" x="0" y="0" viewBox="0 0 452.923 452" style="enable-background:new 0 0 512 512" xml:space="preserve" class=""><circle r="226.4615" cx="226.4615" cy="226" fill="#002577" shape="circle"></circle><g transform="matrix(0.7,0,0,0.7,67.93829956054688,121.49180249273778)"><path d="M52.664 116.254c0-15.227-11.789-27.57-26.332-27.57S0 101.027 0 116.254c0 15.223 11.79 27.566 26.332 27.566s26.332-12.343 26.332-27.566zM452.922 116.254c0-15.227-11.79-27.57-26.332-27.57-14.543 0-26.332 12.343-26.332 27.57 0 15.223 11.789 27.566 26.332 27.566 14.543 0 26.332-12.343 26.332-27.566zM389.723 204.473V171.39c0-9.121-7.086-16.543-15.797-16.543H79c-8.715 0-15.8 7.422-15.8 16.543V215.5c0 9.125 7.085 16.543 15.8 16.543h294.926c8.71 0 15.797-7.418 15.797-16.543zm0 0" fill="#ffffff" opacity="1" data-original="#000000" class=""></path><path d="M52.664 171.39c0-13.285 9.024-24.41 20.992-27-.648-20.59-5.437-35.757-14.258-45.195a39.853 39.853 0 0 1 3.801 17.059c0 16.777-10.281 31.09-24.59 36.394a86.337 86.337 0 0 1 14.055 20.922zM389.723 116.254a39.91 39.91 0 0 1 3.8-17.059c-8.82 9.438-13.605 24.606-14.253 45.196 11.968 2.59 20.988 13.714 20.988 27v2.18a86.337 86.337 0 0 1 14.054-20.923c-14.308-5.304-24.59-19.617-24.59-36.394zM94.797 270.64a5.397 5.397 0 0 0 5.266 5.512h21.066a5.398 5.398 0 0 0 5.27-5.511v-27.57H94.796zM326.527 270.64a5.392 5.392 0 0 0 5.266 5.512h21.066a5.392 5.392 0 0 0 5.266-5.511v-27.57h-31.598zM342.324.46H110.598c-25.946 0-47.09 21.942-47.395 49.04l11.149 52.527c5.898 10.743 9.16 24.715 9.738 41.793h284.742c.578-17.078 3.84-31.05 9.738-41.793L389.72 49.5C389.414 22.402 368.273.46 342.324.46zM142.195 72.14c-5.816 0-10.53-15.964-10.53-22.054a10.536 10.536 0 0 1 5.12-9.531 10.544 10.544 0 0 1 15.945 9.531c0 6.09-4.714 22.055-10.535 22.055zm42.133 55.141c-5.953-.14-10.664-5.078-10.531-11.027 0-6.094 4.715-22.059 10.531-22.059 5.82 0 10.535 15.965 10.535 22.059.133 5.95-4.582 10.887-10.535 11.027zm42.133-55.14c-5.816 0-10.531-15.965-10.531-22.055a10.536 10.536 0 0 1 5.12-9.531 10.524 10.524 0 0 1 10.821 0 10.548 10.548 0 0 1 5.125 9.53c0 6.09-4.719 22.056-10.535 22.056zm42.133 55.14c-5.953-.14-10.668-5.078-10.531-11.027 0-6.094 4.714-22.059 10.53-22.059s10.536 15.965 10.536 22.059c.133 5.95-4.582 10.887-10.535 11.027zm42.133-55.14c-5.817 0-10.536-15.965-10.536-22.055a10.548 10.548 0 0 1 5.125-9.531 10.524 10.524 0 0 1 10.82 0 10.536 10.536 0 0 1 5.122 9.53c0 6.09-4.715 22.056-10.531 22.056zm0 0" fill="#ffffff" opacity="1" data-original="#000000" class=""></path></g></svg>