<svg xmlns="http://www.w3.org/2000/svg" version="1.1" xmlns:xlink="http://www.w3.org/1999/xlink" width="512" height="512" x="0" y="0" viewBox="0 0 512.386 512.386" style="enable-background:new 0 0 512 512" xml:space="preserve" class=""><circle r="256.193" cx="256.193" cy="256.193" fill="#00958c" shape="circle" transform="matrix(1,0,0,1,0,0)"></circle><g transform="matrix(0.5999999999999999,0,0,0.5999999999999999,107.47720015048989,97.47719726562514)"><path d="M234.992 512.386h123.812V334.862H234.992zm72.697-117.387c9.301 0 16.84 7.54 16.84 16.84-.826 22.315-32.859 22.309-33.681 0 .001-9.3 7.541-16.84 16.841-16.84zM512.109 496.412v-161.55H388.804v177.523h107.33c8.823.001 15.975-7.151 15.975-15.973zm-76.554-101.413c9.301 0 16.84 7.54 16.84 16.84-.826 22.315-32.859 22.309-33.681 0 .001-9.3 7.54-16.84 16.841-16.84zM189.018 0H16.251C7.429 0 .277 7.152.277 15.974v288.888h204.715V15.974C204.992 7.152 197.841 0 189.018 0zm-31.669 270.068h-54.714c-19.881-.738-19.866-29.269 0-30h54.714c19.881.738 19.866 29.27 0 30zM496.135 262.808h-40.831v-16.385c-.738-19.881-29.269-19.866-30 0v16.385h-36.217v-70.093c-2.412-63.38-93.267-63.331-95.657 0v.212c.738 19.881 29.269 19.866 30 0v-.212c.9-23.625 34.766-23.607 35.657 0v70.093H323.43v-16.385c-.738-19.881-29.269-19.866-30 0v16.385h-58.438v42.055h277.116v-26.081c.001-8.823-7.151-15.974-15.973-15.974zM16.251 512.386h188.741V334.862H.277v161.549c0 8.823 7.152 15.975 15.974 15.975z" fill="#ffffff" opacity="1" data-original="#000000" class=""></path></g></svg>