<svg xmlns="http://www.w3.org/2000/svg" version="1.1" xmlns:xlink="http://www.w3.org/1999/xlink" width="512" height="512" x="0" y="0" viewBox="0 0 452.917 452" style="enable-background:new 0 0 512 512" xml:space="preserve" class=""><circle r="226.4585" cx="226.4585" cy="226" fill="#002577" shape="circle"></circle><g transform="matrix(0.7,0,0,0.7,67.93359404189107,101.26074854135513)"><path d="M214.105 173.848c-24.48 0-44.035-7.477-62.945-14.711-19.707-7.54-40.09-15.332-67.48-15.332-26.645 0-72.149 9.71-72.606 9.808A9.123 9.123 0 0 1 .441 141.898a9.114 9.114 0 0 1 6.782-6.125c1.937-.421 47.855-10.218 76.457-10.218 30.777 0 53.757 8.785 74.03 16.539 18.153 6.941 35.302 13.504 56.395 13.504 20.512 0 34.72-7.746 40.008-21.805 4.594-12.223 1.004-25.39-4.96-30.586-2.145-1.867-5.735-3.969-12.071-.55a9.135 9.135 0 0 1-13.488-8.29 9.137 9.137 0 0 1 4.804-7.781c11.594-6.227 23.547-5.176 32.786 2.875 12.726 11.074 16.953 32.418 10.062 50.746-8.043 21.379-28.871 33.64-57.14 33.64zM237.895 255.977c-19.622 0-32.333-6.946-44.625-13.668-12.891-7.051-25.067-13.707-46.875-13.707-42.883 0-77.915 17.12-78.266 17.293a9.127 9.127 0 0 1-9.125-.532 9.122 9.122 0 0 1-4.094-8.175 9.138 9.138 0 0 1 5.043-7.625c1.574-.782 39.074-19.211 86.442-19.211 26.496 0 41.996 8.472 55.671 15.957 11.211 6.125 20.895 11.418 35.829 11.418 15.25 0 22.25-5.235 31.109-11.86 9.723-7.273 20.738-15.515 42.09-15.515 38.922 0 67.91 18.976 69.125 19.78a9.134 9.134 0 1 1-10.153 15.188c-.234-.156-25.777-16.718-58.972-16.718-15.246 0-22.25 5.234-31.11 11.863-9.722 7.27-20.738 15.512-42.09 15.512zM328.25 374.613a9.124 9.124 0 0 1-9.086-8.129 9.128 9.128 0 0 1 7.102-9.906c21.53-4.785 22.007-22.047 21.214-29.242-1.515-13.707-10.496-25.73-19.222-25.73-10.172 0-19.07 4.792-30.34 10.855-16.914 9.105-37.961 20.434-72.898 20.434-30.235 0-47.883-8.407-64.954-16.536-15.93-7.586-30.976-14.754-57.062-14.754-52.387 0-87.637 28.875-87.992 29.168a9.133 9.133 0 0 1-12.875-1.132 9.134 9.134 0 0 1 1.144-12.875c1.637-1.364 40.77-33.41 99.723-33.41 30.23 0 47.879 8.402 64.95 16.535 15.929 7.59 30.98 14.754 57.066 14.754 30.312 0 48.324-9.692 64.21-18.243 12.461-6.71 24.23-13.047 39.028-13.047 20.515 0 35.133 21.344 37.41 41.985 2.695 24.418-11.207 43.672-35.418 49.055a9.309 9.309 0 0 1-2 .218zM452.684 20.156a4.577 4.577 0 0 0-8.684-2.89c-.27.8-27.457 80.644-80.05 106.87a4.549 4.549 0 0 0-2.294 2.637 4.538 4.538 0 0 0 .246 3.485 4.665 4.665 0 0 0 6.137 2.043c55.91-27.883 83.5-108.719 84.645-112.145zm0 0" fill="#ffffff" opacity="1" data-original="#000000" class=""></path><path d="M372.133 140.465a13.8 13.8 0 0 1-6.13 1.441 13.685 13.685 0 0 1-6.148-25.933c20.094-10.02 36.282-28.766 48.493-47.457-15.54-4.153-42.203-4.477-60.653 32.328-27.453 54.754-45.75 54.754-45.75 54.754s164.938 16.386 126.618-67.98c-14.118 20.593-32.813 41.07-56.43 52.847zM179.484 31.309a184.988 184.988 0 0 0-21.257-1.297c-25.723 0-45.856 6.343-60.047 18.949a61.37 61.37 0 0 0-20.407 42.754 4.575 4.575 0 0 0 9.148 0 52.567 52.567 0 0 1 17.345-35.942c15.855-14.078 40.824-19.25 74.164-15.402a4.414 4.414 0 0 0 3.34-.926 4.56 4.56 0 0 0-2.285-8.137zm0 0" fill="#ffffff" opacity="1" data-original="#000000" class=""></path><path d="M246.129 24.559c-9.598 0-38.383-11.301-86.36-22.606-29.113-6.855-40.515 11.238-45.015 26.54 17.7-7.095 39.644-9.282 65.785-6.247a13.682 13.682 0 0 1 6.883 24.375 13.466 13.466 0 0 1-10.082 2.809c-22.528-2.618-40.64-.868-54.168 5.105C195.047 95.898 255.246 24.56 246.129 24.56zm0 0" fill="#ffffff" opacity="1" data-original="#000000" class=""></path></g></svg>