<svg xmlns="http://www.w3.org/2000/svg" version="1.1" xmlns:xlink="http://www.w3.org/1999/xlink" width="512" height="512" x="0" y="0" viewBox="0 0 511.549 511.549" style="enable-background:new 0 0 512 512" xml:space="preserve" class=""><circle r="255.7745" cx="255.7745" cy="255.7745" fill="#00958c" shape="circle"></circle><g transform="matrix(0.7,0,0,0.7,76.73227844238284,76.7326400756836)"><path d="M361.911 333.522h-68.069c-12.216 0-22.119 9.903-22.119 22.119v30.423h102.019v-40.712c0-6.533-5.297-11.83-11.831-11.83zM219.603 333.522h-69.211c-6.534 0-11.831 5.297-11.831 11.831v40.712h103.161v-30.423c0-12.217-9.903-22.12-22.119-22.12zM482.723 236.125v-.069l-38.974.019c-22.26.011-40.301 18.06-40.301 40.32v110.083l31.942-.003v23.639c.738 19.881 29.269 19.866 30 0v-23.646c9.58-.045 17.332-7.82 17.332-17.41v-66.322c0-3.316 2.264-6.237 5.498-6.972 33.981-8.392 29.718-57.493-5.497-59.639zM68.928 235.256H28.937v.028c-35.365 2.047-39.618 51.344-5.52 59.66 3.244.727 5.52 3.653 5.52 6.977v66.333c0 9.598 7.765 17.379 17.355 17.412v24.447c.738 19.881 29.269 19.866 30 0v-24.447l32.956-.003V275.576c.001-22.268-18.051-40.32-40.32-40.32zM361.893 160.326c-4.766 0-9.427.439-13.965 1.237-18.993-100.181-160.798-99.966-179.543.192-35.859-7.326-73.153 12.788-87.572 44.526 33.132 5.667 58.435 34.573 58.435 69.295v28.452a52.083 52.083 0 0 1 7.119-.506h73.235c14.516 0 27.66 5.971 37.119 15.579 9.459-9.608 22.603-15.579 37.119-15.579h72.488c2.417 0 4.789.185 7.119.506v-27.634c0-35.777 26.877-65.389 61.497-69.747-12.599-27.507-40.552-46.321-73.051-46.321zM192.274 262.071c-8.792 0-15.92-7.128-15.92-15.92.78-21.095 31.064-21.09 31.841 0-.001 8.792-7.128 15.92-15.921 15.92zm127.14 0c-8.792 0-15.92-7.128-15.92-15.92.78-21.095 31.064-21.09 31.841 0 0 8.792-7.128 15.92-15.921 15.92z" fill="#ffffff" opacity="1" data-original="#000000" class=""></path></g></svg>