<svg xmlns="http://www.w3.org/2000/svg" version="1.1" xmlns:xlink="http://www.w3.org/1999/xlink" width="512" height="512" x="0" y="0" viewBox="0 0 452.923 452" style="enable-background:new 0 0 512 512" xml:space="preserve" class=""><circle r="226.4615" cx="226.4615" cy="226" fill="#002577" shape="circle"></circle><g transform="matrix(0.7,0,0,0.7,67.93844261169434,68.07675504684448)"><path d="M387.191 353.664a8.967 8.967 0 0 0-3.18-.644H331.86a394.2 394.2 0 0 0 13.446-72h78.644a204.568 204.568 0 0 1-36.758 72.644zm-38.441-90.793c23.172-25.09 44.063-49.262 62.223-71.996h17.043a201.943 201.943 0 0 1 .015 71.996zm-42.355 44.113c6.933-6.93 13.503-13.808 20.105-20.68-2.773 24.348-7.305 46.696-13.566 66.716h-54.829c16.305-14.95 32.512-30.25 48.29-46.036zm-29.856 116a8.917 8.917 0 0 0-2.2 3.176 204.16 204.16 0 0 1-38.952 5.512v-57.965c.953-.844 1.898-1.691 2.84-2.535h68.543c-14.188 36.648-30 51.605-30.23 51.812zm-100.516-.058a1153.473 1153.473 0 0 0 40.614-32.98c.203-.173.402-.333.61-.509v42.172a205.536 205.536 0 0 1-38.997-5.48 8.973 8.973 0 0 0-2.227-3.203zm128.48-6.567c6.661-10.394 14.474-25.191 21.622-45.187h45.621a205.703 205.703 0 0 1-67.242 45.187zM446.652 6.266c-6.18-6.184-20.625-20.664-114.726 44.793-.078.054-.113.14-.184.195a208.656 208.656 0 0 0-27.12-13.684c6.628 10.38 14.394 25.125 21.503 45.004h25.652a706.9 706.9 0 0 0 7.036-9.761c.335-.477.656-.938.988-1.415-3.817-3.293-7.77-6.382-11.797-9.355 59.496-40.66 82.25-44.793 85.82-42.95 5.36 5.368-4.23 42.509-68.094 123.087a9.072 9.072 0 1 0 14.22 11.27C442.7 74.276 465.14 24.757 446.651 6.265zM338.86 183.86h-.532a8.975 8.975 0 0 0-5.035 0H305.07a9.074 9.074 0 0 0-9.062 9.074c0 5.007 4.055 9.07 9.062 9.074h9.817a1567.222 1567.222 0 0 1-55.254 58.14c-134.324 134.356-229.63 185.543-240.86 174.41-2.003-3.75 2.165-26.59 42.97-86.273 1.308 1.762 2.46 3.625 3.827 5.352a8.98 8.98 0 0 1 3.051-.617h12.586c10.332-7.489 21.426-16.02 33.16-25.48a436.496 436.496 0 0 1-6.98-46.52H28.609a200.531 200.531 0 0 0 22.27 51.152c-.086.11-.211.164-.29.277C-14.847 426.555-.382 441.023 5.798 447.203c4.238 4.242 10.047 6.18 17.133 6.18 54.054 0 182.125-112.985 249.53-180.403a1578.3 1578.3 0 0 0 57.33-60.425v14.18a9.07 9.07 0 0 0 9.07 9.07c5.011 0 9.074-4.059 9.074-9.07v-33.801a9.074 9.074 0 0 0-9.075-9.075zm0 0" fill="#ffffff" opacity="1" data-original="#000000" class=""></path><path d="M235.387 190.875v26.04c8.5-8.645 16.836-17.33 25.004-26.04zM217.246 82.574v-60.5a204.2 204.2 0 0 0-38.957 5.512 8.867 8.867 0 0 1-2.23 3.207c-.141.129-15.985 15.07-30.196 51.781zM319.27 124.133a286.718 286.718 0 0 0-6.29-23.406h-77.593v71.996h41.828a1252.354 1252.354 0 0 0 42.055-48.59zM168.43 281.02h-42.797c1.16 11.375 2.73 22.433 4.707 33.18a1296.697 1296.697 0 0 0 38.09-33.18zM276.54 30.758a9.008 9.008 0 0 1-2.15-3.043 204.656 204.656 0 0 0-39.003-5.465v60.324h71.379c-14.223-36.726-30.055-51.656-30.227-51.816zM217.246 235.121v-44.246H124.02c-.774 11.914-1.27 23.957-1.27 35.996 0 12.04.496 24.086 1.27 36h64.343c9.54-8.84 19.207-18.129 28.883-27.75zM217.246 100.727H139.7c-6.71 21.457-11.433 45.593-14.129 71.996h91.676zM105.848 262.871c-.75-11.926-1.239-23.965-1.239-36 0-12.031.489-24.07 1.239-35.996H24.602a204.035 204.035 0 0 0-.051 71.996zM338.133 100.727h-6.188c.559 1.91 1.203 3.738 1.727 5.675a747.262 747.262 0 0 0 4.46-5.675zM148.129 37.387a205.703 205.703 0 0 0-67.242 45.187h45.62c7.15-19.996 14.962-34.793 21.622-45.187zM120.773 100.727H68.621a8.967 8.967 0 0 1-3.18-.645 204.583 204.583 0 0 0-36.757 72.64h78.648a394.544 394.544 0 0 1 13.441-71.995zm0 0" fill="#ffffff" opacity="1" data-original="#000000" class=""></path></g></svg>