<svg xmlns="http://www.w3.org/2000/svg" version="1.1" xmlns:xlink="http://www.w3.org/1999/xlink" width="512" height="512" x="0" y="0" viewBox="0 0 512 512" style="enable-background:new 0 0 512 512" xml:space="preserve" class=""><circle r="256" cx="256" cy="256" fill="#00958c" shape="circle"></circle><g transform="matrix(0.7,0,0,0.7,76.80000343322754,76.80000000000001)"><path d="M423.103 93.304C387.172 34.88 324.703 0 256 0 187.296 0 124.828 34.88 88.897 93.303c-35.798 58.208-38.769 129.364-7.944 190.343.255.505.539.996.85 1.469l135.236 205.863C225.686 504.141 240.25 512 256 512c15.749 0 30.315-7.859 38.962-21.021l135.235-205.863c.311-.473.595-.964.85-1.469 30.825-60.98 27.854-132.136-7.944-190.343zM256 294.327c-55.599 0-100.832-45.1-100.832-100.535S200.401 93.256 256 93.256s100.832 45.1 100.832 100.536c0 55.435-45.233 100.535-100.832 100.535z" fill="#ffffff" opacity="1" data-original="#000000" class=""></path><path d="M298.844 161.868c-5.857-5.859-15.355-5.859-21.213-.001l-29.616 29.615c-.366.366-.802.548-1.331.515a1.702 1.702 0 0 1-1.277-.637l-10.094-12.184c-5.286-6.379-14.741-7.267-21.121-1.982-6.379 5.285-7.267 14.741-1.982 21.121l10.094 12.185a31.826 31.826 0 0 0 24.454 11.5 31.838 31.838 0 0 0 22.471-9.304l29.615-29.615c5.858-5.858 5.858-15.355 0-21.213z" fill="#ffffff" opacity="1" data-original="#000000" class=""></path></g></svg>