<svg xmlns="http://www.w3.org/2000/svg" version="1.1" xmlns:xlink="http://www.w3.org/1999/xlink" width="512" height="512" x="0" y="0" viewBox="0 0 512 512" style="enable-background:new 0 0 512 512" xml:space="preserve" class=""><circle r="256" cx="256" cy="256" fill="#00958c" shape="circle"></circle><g transform="matrix(0.6499999999999998,0,0,0.6499999999999998,89.60000000000005,89.60000000000005)"><path d="M181 481.5c22.558 0 42.239-12.518 52.486-30.967l-104.966.01C138.768 468.986 158.446 481.5 181 481.5zM91.436 121.789h89.513v57.958H91.436z" fill="#ffffff" opacity="1" data-original="#000000" class=""></path><path d="M420.913 300.5h60.037v-175c0-52.383-42.617-95-95.001-95H95c-52.383 0-95 42.617-95 95v175h300.949V194.748c0-8.284 6.716-15 15.001-15h89.962c8.285 0 15.001 6.716 15.001 15zM210.952 194.748c0 8.284-6.716 15-15.001 15H76.435c-8.285 0-15.001-6.716-15.001-15v-72.959c0-16.542 13.459-30 30.002-30H195.95c8.285 0 15.001 6.716 15.001 15v87.959zm195.097-72.959h-90.1c-8.285 0-15.001-6.716-15.001-15s6.716-15 15.001-15h90.1c8.285 0 15.001 6.716 15.001 15s-6.716 15-15.001 15zM496.999 390.5l-16.048.01V330.5h-60.037v90.015l61.084-.006v45.09c0 8.284 6.716 15 15.001 15S512 473.884 512 465.6v-60.1c0-8.276-6.714-15-15.001-15zM0 355.549c0 3.979 1.58 7.793 4.394 10.606l50.003 50a15.004 15.004 0 0 0 10.608 4.394l235.943-.023V330.5H0z" fill="#ffffff" opacity="1" data-original="#000000" class=""></path><path d="m330.951 420.524 59.959-.006v-210.77h-59.959z" fill="#ffffff" opacity="1" data-original="#000000" class=""></path></g></svg>