<svg xmlns="http://www.w3.org/2000/svg" version="1.1" xmlns:xlink="http://www.w3.org/1999/xlink" width="512" height="512" x="0" y="0" viewBox="0 0 24 24" style="enable-background:new 0 0 512 512" xml:space="preserve" class=""><circle r="12" cx="12" cy="12" fill="#002577" shape="circle"></circle><g transform="matrix(0.7,0,0,0.7,3.6000000000000014,3.6000000000000014)"><path d="M21.25 3H2.75A2.752 2.752 0 0 0 0 5.75v12.5A2.752 2.752 0 0 0 2.75 21h18.5A2.752 2.752 0 0 0 24 18.25V5.75A2.752 2.752 0 0 0 21.25 3zM7.5 7C8.878 7 10 8.122 10 9.5S8.878 12 7.5 12 5 10.878 5 9.5 6.122 7 7.5 7zm4.5 9.25a.75.75 0 0 1-.75.75h-7.5a.75.75 0 0 1-.75-.75v-.5A2.752 2.752 0 0 1 5.75 13h3.5A2.752 2.752 0 0 1 12 15.75zm8.25.75h-5.5a.75.75 0 0 1 0-1.5h5.5a.75.75 0 0 1 0 1.5zm0-4h-5.5a.75.75 0 0 1 0-1.5h5.5a.75.75 0 0 1 0 1.5zm0-4h-5.5a.75.75 0 0 1 0-1.5h5.5a.75.75 0 0 1 0 1.5z" fill="#ffffff" opacity="1" data-original="#000000" class=""></path></g></svg>