<svg xmlns="http://www.w3.org/2000/svg" version="1.1" xmlns:xlink="http://www.w3.org/1999/xlink" width="512" height="512" x="0" y="0" viewBox="0 0 512 512" style="enable-background:new 0 0 512 512" xml:space="preserve" class=""><circle r="256" cx="256" cy="256" fill="#002577" shape="circle"></circle><g transform="matrix(0.7,0,0,0.7,76.81500434875488,76.80000271797181)"><path d="M261.7 307.1 219 349.9c-28-20.9-50.9-47.7-67.2-78.6-16.8-31.5-25.2-66.3-25.2-104.2 0-18.1 2.2-36.2 6.8-53.7 1.9-7.4 4.2-14.7 6.8-21.8 2.9-7.9-6.7-14.4-13.1-9-22.3 18.8-41.1 41.4-55.6 66.8-20.1 35.1-30.2 74.2-30.2 117.3 0 36 7.2 69.4 21.7 100.3 14.1 30.3 34.3 57.5 59.4 79.6l-42.7 42.7c-5.2 5.2-5.2 13.6 0 18.8 2.5 2.5 5.9 3.9 9.4 3.9h182.1c7.3 0 13.3-5.9 13.3-13.3V316.5c0-7.3-5.9-13.3-13.3-13.3-3.6 0-7 1.4-9.5 3.9zM448.7 145.1c-14.2-30.2-34.3-57.3-59-79.7l42.7-42.7c5.2-5.2 5.2-13.6 0-18.8-2.5-2.5-5.9-3.9-9.4-3.9H240.9c-7.3 0-13.3 6-13.3 13.3v182.1c0 7.3 6 13.3 13.3 13.3 3.5 0 6.9-1.4 9.4-3.9l42.7-42.7c28.3 20.6 51.4 47.5 67.6 78.6 16.6 31.5 24.9 66.3 24.9 104.2 0 18.1-2.1 36.1-6.4 53.7-1.8 7.3-4 14.5-6.5 21.6-2.8 7.9 6.8 14.4 13.1 9 22-18.8 40.5-41.3 54.9-66.5 20.2-35.1 30.2-74.3 30.2-117.4 0-36-7.4-69.4-22.1-100.2z" fill="#ffffff" opacity="1" data-original="#000000" class=""></path></g></svg>