<svg xmlns="http://www.w3.org/2000/svg" version="1.1" xmlns:xlink="http://www.w3.org/1999/xlink" width="512" height="512" x="0" y="0" viewBox="0 0 452.923 452" style="enable-background:new 0 0 512 512" xml:space="preserve" class=""><g transform="matrix(1,0,0,1,0,45)"><path d="M236.309 106.25h4.464L128 .46 85.48 40.349l-.007.011-49.23 46.18-.013.008-21.003 19.703zM226.46 265.402V126.145H29.54v139.257h88.612V175.88c-.027-5.465 4.383-9.918 9.848-9.95h78.77c5.464.032 9.875 4.485 9.847 9.95v89.523zM108.31 235.56c.027 5.468-4.383 9.921-9.848 9.949H49.23c-5.465-.028-9.876-4.48-9.848-9.95v-59.68c-.028-5.464 4.383-9.917 9.847-9.948h49.23c5.466.03 9.876 4.484 9.849 9.949zM68.922 6.781h-29.54v49.657l29.54-27.711zM423.383 215.668h19.695v19.89h-19.695zm0 0" fill="#002577" opacity="1" data-original="#000000" class=""></path><path d="M443.078 255.453H413.54c-5.465-.027-9.875-4.48-9.848-9.945v-39.79c-.027-5.464 4.383-9.917 9.848-9.945h29.54v-16.882l-54.5-82.586H305.23v169.097h137.848zm-128-139.258c-.027-5.465 4.379-9.918 9.844-9.945h49.23a9.814 9.814 0 0 1 8.196 4.43l39.382 59.68a10.036 10.036 0 0 1 .493 10.21 9.842 9.842 0 0 1-8.684 5.254h-88.617c-5.465-.027-9.871-4.48-9.844-9.945zm19.692 99.473h-9.848c-5.453-.059-9.844-4.496-9.844-9.95s4.39-9.89 9.844-9.945h9.848c5.453.055 9.847 4.493 9.847 9.946s-4.394 9.89-9.847 9.949zM295.383 285.293H0v29.844c-.02 5.46 4.383 9.91 9.848 9.945h20.937c.39-1.363.856-2.707 1.39-4.02 12.509-33.445 60.997-33.43 73.497 0 .535 1.313 1 2.657 1.39 4.02h228.954c.39-1.363.855-2.707 1.39-4.02 12.508-33.445 60.996-33.43 73.496 0 .535 1.313 1 2.657 1.391 4.02h30.785c5.461-.035 9.867-4.484 9.844-9.945v-29.844zM196.922 265.402v-39.789c.027 5.465-4.379 9.918-9.844 9.946h-9.848c-5.453-.055-9.847-4.493-9.847-9.946s4.394-9.89 9.847-9.945h9.848c5.465.027 9.871 4.48 9.844 9.945v-39.789h-59.074v79.578zm0 0" fill="#002577" opacity="1" data-original="#000000" class=""></path><path d="M68.922 315.137a19.894 19.894 0 1 0 7.367 38.293 19.9 19.9 0 0 0 12.328-18.403c.043-10.925-8.765-19.824-19.695-19.89zm0 29.84a9.946 9.946 0 0 1-7.168-16.945 9.947 9.947 0 0 1 17.016 6.995c.027 5.47-4.38 9.922-9.848 9.95zM374.152 315.137a19.894 19.894 0 1 0 7.368 38.293 19.9 19.9 0 0 0 12.328-18.403c.043-10.925-8.766-19.824-19.696-19.89zm0 29.84a9.946 9.946 0 0 1-7.168-16.945A9.947 9.947 0 0 1 384 335.026c.027 5.47-4.379 9.922-9.848 9.95zm0 0" fill="#002577" opacity="1" data-original="#000000" class=""></path></g></svg>