<svg xmlns="http://www.w3.org/2000/svg" version="1.1" xmlns:xlink="http://www.w3.org/1999/xlink" width="512" height="512" x="0" y="0" viewBox="0 0 452 452.923" style="enable-background:new 0 0 512 512" xml:space="preserve" class=""><g transform="matrix(1,0,0,1,80,0)"><path d="M192.98 286.578a9.845 9.845 0 0 1 4.403-1.039h21.949l-21.289-23.855-26.832 35.777zM98.922 256l39.387 52.516L177.69 256zM83.633 286.578l21.77 10.883-26.833-35.777-21.285 23.855H79.23c1.528 0 3.036.356 4.403 1.04zm0 0" fill="#00958c" opacity="1" data-original="#000000" class=""></path><path d="M35.305 305.23a9.848 9.848 0 0 1-7.348-16.402L57.247 256H25.124L.461 289.441v163.48h128V331.009L76.91 305.23zM251.492 256h-32.125l29.293 32.828a9.846 9.846 0 0 1 1.637 10.578 9.842 9.842 0 0 1-8.984 5.824h-41.606l-51.555 25.778v121.914h128v-163.48zm5.73 128c0 5.438-4.41 9.848-9.847 9.848h-69.684c-5.437 0-9.843-4.41-9.843-9.848v-29.54a9.843 9.843 0 0 1 9.843-9.843h69.684c5.437 0 9.848 4.406 9.848 9.844zM200.746 45.504C188.766 6.219 162.223 0 138.31 0 114.395 0 87.848 6.219 75.87 45.504c34.512-34.414 90.363-34.414 124.875 0zm0 0" fill="#00958c" opacity="1" data-original="#000000" class=""></path><path d="M145.113 39.738a67.11 67.11 0 0 0-6.804-.355 69.51 69.51 0 0 0-48.114 19.734c-.148.145-.285.301-.433.446-.457 8.527-.684 18.07-.684 29.054 0 .465 0 .91.004 1.34 10.102-8.52 26.191-21.035 49.227-21.035 23.03 0 39.125 12.516 49.226 21.035.004-.43.004-.875.004-1.34 0-10.984-.226-20.527-.687-29.055-.145-.144-.282-.3-.43-.445a69.791 69.791 0 0 0-41.309-19.379zm0 0" fill="#00958c" opacity="1" data-original="#000000" class=""></path><path d="M207.023 104.25c0-.016-.007-.027-.007-.043-.075-1.223-.258-2.41-.391-3.613-.89 6.379-3.059 11.39-8.316 13.82a12.175 12.175 0 0 1-5.176 1.191c-5.828 0-11.051-4.44-16.512-9.085-8.89-7.555-21.062-17.903-38.312-17.903s-29.426 10.348-38.313 17.903c-7.023 5.976-13.66 11.609-21.687 7.894-5.262-2.43-7.43-7.445-8.317-13.82-.137 1.203-.32 2.39-.39 3.613 0 .016-.012.027-.012.043-.078 1.352-.207 2.688-.207 4.059 0 39.062 32.453 88.613 68.926 88.613 36.468 0 68.921-49.55 68.921-88.613 0-1.371-.125-2.707-.207-4.059zm-68.714 72.98c-14.317 0-29.54-6.902-29.54-19.69a9.849 9.849 0 0 1 8.672-9.778 9.853 9.853 0 0 1 10.743 7.441 23.12 23.12 0 0 0 20.25 0 9.85 9.85 0 0 1 10.742-7.441 9.855 9.855 0 0 1 8.672 9.777c0 12.79-15.223 19.691-29.54 19.691zm0 0" fill="#00958c" opacity="1" data-original="#000000" class=""></path></g></svg>