<svg xmlns="http://www.w3.org/2000/svg" version="1.1" xmlns:xlink="http://www.w3.org/1999/xlink" width="512" height="512" x="0" y="0" viewBox="0 0 452.923 452" style="enable-background:new 0 0 512 512" xml:space="preserve" class=""><g transform="matrix(0.8000000000000005,0,0,0.8000000000000005,60.29315490722644,48.41510486006723)"><path d="M0 98.324v234.863h218.191a125.724 125.724 0 0 1 3.984-39.145h-16.613c-5.406.005-9.789-4.378-9.789-9.784v-39.145c0-5.406 4.383-9.785 9.79-9.785h39.156a9.603 9.603 0 0 1 7.668 3.977 126.197 126.197 0 0 1 92.86-40.48c4.065 0 8.105.26 12.124.648 1.172.113 2.328.273 3.492.418 2.996.375 5.977.855 8.942 1.441.715.145 1.449.195 2.164.352V98.324zm88.098 185.934c0 5.406-4.383 9.789-9.79 9.785H39.157c-5.406.004-9.789-4.379-9.789-9.785v-39.145c0-5.406 4.383-9.785 9.79-9.785h39.152c5.406 0 9.789 4.379 9.789 9.785zm0-97.86c0 5.403-4.383 9.786-9.79 9.786H39.157c-5.406 0-9.789-4.383-9.789-9.786v-39.144c0-5.406 4.383-9.79 9.79-9.785h39.152c5.406-.004 9.789 4.379 9.789 9.785zm78.308 97.86c0 5.406-4.383 9.789-9.789 9.785h-39.152c-5.406.004-9.79-4.379-9.79-9.785v-39.145c0-5.406 4.384-9.785 9.79-9.785h39.152c5.406 0 9.79 4.379 9.79 9.785zm0-97.86c0 5.407-4.383 9.786-9.789 9.786h-39.152c-5.406 0-9.79-4.383-9.79-9.786v-39.144c0-5.406 4.384-9.79 9.79-9.785h39.152c5.406-.004 9.79 4.379 9.79 9.785zm88.102 0c-.004 5.403-4.387 9.786-9.79 9.786h-39.155c-5.407 0-9.79-4.38-9.79-9.786v-39.144c0-5.406 4.383-9.79 9.79-9.785h39.156c5.402-.004 9.785 4.379 9.789 9.785zm88.097 0c-.003 5.403-4.382 9.786-9.789 9.786H293.66c-5.406 0-9.785-4.383-9.789-9.786v-39.144c.004-5.406 4.383-9.79 9.79-9.785h39.155c5.407-.004 9.786 4.379 9.79 9.785zm0 0" fill="#00958c" opacity="1" data-original="#000000" class=""></path><path d="M378.734 223.793a106.499 106.499 0 0 0-24.308-4.977 107.198 107.198 0 0 0-9.18-.418 107.104 107.104 0 0 0-92.164 51.86 99.778 99.778 0 0 0-4.617 8.504 98.54 98.54 0 0 0-3.762 8.875 105.942 105.942 0 0 0-7.133 38.41 98.204 98.204 0 0 0 1.153 15.402c7.539 52.645 53.328 92.242 106.523 92.242 52.914.032 97.996-38.406 106.332-90.656s-22.55-102.808-72.844-119.242zm22.602 119.184h-58.73c-5.407 0-9.79-4.383-9.79-9.79v-78.289c.004-5.402 4.387-9.777 9.79-9.777 5.402 0 9.78 4.375 9.789 9.777v68.504h48.94c5.407 0 9.786 4.383 9.786 9.785 0 5.407-4.379 9.79-9.785 9.79zM0 .46v78.29h371.969V.46zm332.816 48.93H39.156c-5.406 0-9.789-4.378-9.789-9.785 0-5.402 4.383-9.785 9.79-9.785h293.66c5.402 0 9.785 4.383 9.785 9.785 0 5.407-4.383 9.786-9.786 9.786zm0 0" fill="#00958c" opacity="1" data-original="#000000" class=""></path></g></svg>