<svg xmlns="http://www.w3.org/2000/svg" version="1.1" xmlns:xlink="http://www.w3.org/1999/xlink" width="512" height="512" x="0" y="0" viewBox="0 0 452.923 452" style="enable-background:new 0 0 512 512" xml:space="preserve" class=""><g transform="matrix(1,0,0,1,0,70)"><path d="M206.965 100.023 34.485 52.371 0 88.574l173.945 47.559zM236.727.46v79.821l144.457-39.914zM278.977 136.133l173.945-47.559-34.48-36.203-172.481 47.652zm0 0" fill="#002577" opacity="1" data-original="#000000"></path><path d="M181.582 157.793a11.412 11.412 0 0 1-4.398 1.14 9.965 9.965 0 0 1-2.586-.347l-132.934-36.34V247.63l174.531 48.219V121.055l-31.605 34.562a10.034 10.034 0 0 1-3.008 2.176zm24.348 65.809v43.113a10.983 10.983 0 0 1-3.762 8.336 9.96 9.96 0 0 1-6.508 2.445c-.676 0-1.351-.07-2.012-.21l-51.335-10.782a10.656 10.656 0 0 1-8.25-10.567v-43.113a10.992 10.992 0 0 1 3.757-8.336 9.808 9.808 0 0 1 8.524-2.23l51.332 10.777a10.663 10.663 0 0 1 8.254 10.567zM275.738 158.934a11.457 11.457 0 0 1-4.39-1.137 10.063 10.063 0 0 1-3.012-2.18l-31.61-34.562v174.793l174.536-48.22V122.247l-132.938 36.34c-.84.23-1.71.344-2.586.348zm56.211 96.59-71.867 21.554a9.738 9.738 0 0 1-2.824.422 10.36 10.36 0 0 1-9.867-7.82c-1.618-5.614 1.496-11.504 7.046-13.325l71.868-21.558a10.202 10.202 0 0 1 7.922 1 10.206 10.206 0 0 1 4.77 6.398c1.616 5.617-1.497 11.504-7.048 13.328zm7.047-45.66c1.617 5.613-1.496 11.5-7.047 13.323l-71.867 21.555a9.607 9.607 0 0 1-2.824.422 10.355 10.355 0 0 1-9.867-7.82c-1.618-5.614 1.496-11.504 7.046-13.324l71.868-21.56a10.203 10.203 0 0 1 12.691 7.403zM216.195 80.281V.461L71.738 40.367zm0 0" fill="#002577" opacity="1" data-original="#000000"></path></g></svg>