<svg xmlns="http://www.w3.org/2000/svg" version="1.1" xmlns:xlink="http://www.w3.org/1999/xlink" width="512" height="512" x="0" y="0" viewBox="0 0 452.923 452" style="enable-background:new 0 0 512 512" xml:space="preserve" class=""><g transform="matrix(1,0,0,1,0,90)"><path d="M157.54 49.691v167.387h19.69V.461h-19.69zM19.691 102.805v74.886h118.157V59.54H60.07zm98.461 45.347h-9.843c-5.438 0-9.848-4.406-9.848-9.843s4.41-9.848 9.848-9.848h9.843c5.438 0 9.848 4.41 9.848 9.848s-4.41 9.843-9.848 9.843zm-49.23-78.77h49.23c5.438.005 9.848 4.411 9.848 9.848v29.54c0 5.437-4.41 9.843-9.848 9.847H59.078a9.85 9.85 0 0 1-6.96-2.887l-9.848-9.847a9.838 9.838 0 0 1 0-13.922L61.96 72.27a9.863 9.863 0 0 1 6.962-2.887zM85.703 198.086a39.553 39.553 0 0 1 24.57 15.289 38.79 38.79 0 0 1 2.079 3.11c.125.202.277.382.398.593h25.098v-19.695H78.77c2.328.027 4.648.262 6.933.703zM97.223 230.223a19.754 19.754 0 0 0-12.098-12 17.758 17.758 0 0 0-.883-.278 17.645 17.645 0 0 0-10.945 0c-.297.086-.594.176-.883.278a19.744 19.744 0 0 0-12.098 12c-.02.054-.062.097-.082.152a19.413 19.413 0 0 0-1.156 6.395c0 10.875 8.817 19.69 19.692 19.69s19.69-8.815 19.69-19.69a19.413 19.413 0 0 0-1.155-6.395c-.02-.055-.063-.098-.082-.152zM78.77 246.617c-5.438 0-9.848-4.41-9.848-9.847s4.41-9.848 9.848-9.848 9.847 4.41 9.847 9.848-4.41 9.847-9.847 9.847zM196.922 217.078H320.48c.122-.21.274-.39.399-.594a38.79 38.79 0 0 1 2.078-3.109c15.402-20.79 47.61-20.8 63.008 0a38.79 38.79 0 0 1 2.078 3.11c.125.202.277.382.398.593h25.098v-19.695H226.461c-5.438 0-9.844-4.406-9.844-9.844s4.406-9.848 9.844-9.848h187.078V20.152H196.922zM216.617 30H256c5.438 0 9.848 4.41 9.848 9.848s-4.41 9.843-9.848 9.843h-39.383c-5.441 0-9.847-4.406-9.847-9.843S211.176 30 216.617 30zm0 29.54h59.074c5.438 0 9.848 4.405 9.848 9.843 0 5.441-4.41 9.847-9.848 9.847h-59.074a9.844 9.844 0 0 1-9.847-9.847c0-5.438 4.406-9.844 9.847-9.844zm0 0" fill="#00958c" opacity="1" data-original="#000000" class=""></path><path d="M0 207.23c.008 5.434 4.41 9.84 9.848 9.848h34.941c.121-.21.273-.39.398-.594a38.79 38.79 0 0 1 2.079-3.109 39.553 39.553 0 0 1 24.57-15.29 38.969 38.969 0 0 1 6.934-.702H9.848C4.41 197.39.008 201.797 0 207.23zM433.23.46v216.618h19.692V.461zM372.914 230.223a19.744 19.744 0 0 0-12.098-12c-.289-.102-.586-.192-.882-.278a17.645 17.645 0 0 0-10.946 0c-.297.086-.59.176-.883.278a19.754 19.754 0 0 0-12.097 12c-.02.054-.063.097-.082.152a19.413 19.413 0 0 0-1.156 6.395c0 10.875 8.816 19.69 19.69 19.69s19.692-8.815 19.692-19.69a19.413 19.413 0 0 0-1.156-6.395c-.02-.055-.062-.098-.082-.152zm-18.453 16.394c-5.438 0-9.844-4.41-9.844-9.847s4.406-9.848 9.844-9.848 9.848 4.41 9.848 9.848-4.41 9.847-9.848 9.847zm0 0" fill="#00958c" opacity="1" data-original="#000000" class=""></path></g></svg>