<svg xmlns="http://www.w3.org/2000/svg" version="1.1" xmlns:xlink="http://www.w3.org/1999/xlink" width="512" height="512" x="0" y="0" viewBox="0 0 452 452.92" style="enable-background:new 0 0 512 512" xml:space="preserve"><g transform="matrix(0.8000000000000006,0,0,0.8000000000000006,43.41510791182509,45.29182572622068)"><path d="M282.477 5.055A9.499 9.499 0 0 1 288.273.32a8.634 8.634 0 0 1 6.922 1.004c4.72 3.113 6.243 9.336 3.5 14.281L159.82 271.265l-16.46-10.097zm-133.32 447.863L.46 361.668c27.758-15.922 46.602-45.184 55.047-60.469l62.887 38.594 52.734 32.363c-8.156 15.156-22.77 47.192-21.973 80.762zm54.3-119.371-14.289 26.3-57.434-35.242-75.078-46.074-.008-.004-.136-.082 14.52-26.746a9.527 9.527 0 0 1 5.808-4.738 8.647 8.647 0 0 1 6.914 1.004l116.2 71.308a10.814 10.814 0 0 1 3.503 14.274zM416.297 226.664l-29.074 54.2a28.907 28.907 0 0 1-17.727 14.538 26.447 26.447 0 0 1-21.242-3.144l-33.277-20.676c-13.918-8.644-18.66-27.941-10.575-43.016l28.743-53.562zM291.488 376.582a9.606 9.606 0 0 1-5.867 4.852 8.568 8.568 0 0 1-6.851-1.028c-4.739-2.941-6.325-9.57-3.536-14.773l23.938-44.606 16.594 10.309zm106.282-53.348a28.87 28.87 0 0 1-17.723 14.536c-7.211 2-14.926.855-21.242-3.149l-24.957-15.504-1.61-1-56.636-35.183c-13.915-8.645-18.657-27.942-11.075-42.176l51.168-76.594.762.473-29.086 54.199c-13.101 24.422-5.223 55.805 17.57 69.96l33.278 20.677a45.19 45.19 0 0 0 36.312 5.336 48.322 48.322 0 0 0 29.723-24.215l28.734-53.559.703.438zm0 0" fill="#002577" opacity="1" data-original="#000000"></path></g></svg>